<svg xmlns="http://www.w3.org/2000/svg" id="Capa_1" viewBox="0 0 270.18 27.26"><defs><style>.cls-1{fill:#fff}</style></defs><path d="M14.61 26.56v-8.12l-2-2.29v10.41H.71V.84h20.57c3.42 0 5.23 1.81 5.23 5.23v3.26c0 1.95-.78 3.26-2.46 4.12l-.88.45 3.33 3.23v9.42H14.61Zm-2-13.94h2V6.89h-2v5.73ZM29.02 26.56V.84h24.66v8.93H41.43v2.01h12.25V16H41.43v2.05h12.25v8.51H29.02zM70.09 26.54v-5.77h-2v5.77h-11.9v-9.38L60.32.82h17.6L82 17.16v9.38H70.1Zm-2.05-10.46h2.1l-.1-9.21h-1.9l-.1 9.21ZM84.51 26.56V.84h12.4v16.79h7.93v8.93H84.51zM126.9 26.56v-5.79h-2.01v5.79h-11.41v-9.43L117.63.71h16.58l4.1 16.42v9.43H126.9Zm-2.06-10.52h2.11l-.1-9.25h-1.91l-.1 9.25ZM145.66 26.56c-3.44 0-5.26-1.82-5.26-5.26V5.96c0-3.44 1.82-5.26 5.26-5.26h14.31c3.44 0 5.26 1.82 5.26 5.26v5.68h-11.41V6.79h-2.01v13.68h4.48v-2.01h-2.47v-4.81h11.41v7.64c0 3.44-1.82 5.26-5.26 5.26h-14.31ZM167.33 26.56V.71h21.46v8.98h-10.1v2.01h10.1v4.25h-10.1V18h10.1v8.56h-21.46zM205.59 26.56l-5.28-9.8h-2.01l3.1 6.41v3.39h-10.52V.71h10.01l5.14 9.54h2.07l-3.03-6.15V.71h10.56v25.85h-10.04zM222.98 26.56c-3.44 0-5.26-1.82-5.26-5.26V5.96c0-3.44 1.82-5.26 5.26-5.26h14.31c3.44 0 5.26 1.82 5.26 5.26v6.32h-11.41V6.79h-2.01v13.68h2.01v-6.18h11.41v7.01c0 3.44-1.82 5.26-5.26 5.26h-14.31ZM251.38 26.56v-5.34l-6.73-8.14V.71h11.41v9.57l1 1.43 1-1.43V.71h11.42v12.37l-6.73 8.14v5.34h-11.37z" class="cls-1"/></svg>