<?xml version="1.0" encoding="UTF-8"?>
<svg id="Capa_2" data-name="Capa 2" xmlns="http://www.w3.org/2000/svg" viewBox="0 0 250.3 240.57">
  <defs>
    <style>
      .cls-1 {
        fill: none;
        stroke: #fff;
        stroke-miterlimit: 10;
        stroke-width: .75px;
      }
    </style>
  </defs>
  <g id="Capa_1-2" data-name="Capa 1">
    <path class="cls-1" d="m249.92,120.28c0,12.99-10.51,24.17-14.32,35.89-3.95,12.15-2.15,27.34-9.51,37.46s-22.49,13.16-32.7,20.6-17.53,20.81-29.68,24.75c-11.72,3.81-25.57-2.59-38.57-2.59s-26.84,6.39-38.57,2.59c-12.15-3.95-19.57-17.39-29.68-24.75s-25.27-10.38-32.7-20.6c-7.36-10.11-5.56-25.3-9.51-37.45S.38,133.28.38,120.28s10.51-24.17,14.32-35.89c3.95-12.15,2.15-27.34,9.51-37.46,7.43-10.22,22.49-13.16,32.7-20.6,10.11-7.36,17.53-20.81,29.68-24.75,11.72-3.81,25.57,2.59,38.57,2.59s26.84-6.39,38.57-2.59,19.57,17.39,29.68,24.75c10.22,7.43,25.27,10.38,32.7,20.6s5.56,25.3,9.51,37.45c3.81,11.72,14.32,22.9,14.32,35.89Z"/>
  </g>
</svg>