<?xml version="1.0" encoding="utf-8"?>
<!-- Generator: Adobe Illustrator 26.5.2, SVG Export Plug-In . SVG Version: 6.00 Build 0)  -->
<svg version="1.1" xmlns="http://www.w3.org/2000/svg" xmlns:xlink="http://www.w3.org/1999/xlink" x="0px" y="0px"
	 viewBox="0 0 67.66 65.04" style="enable-background:new 0 0 67.66 65.04;" xml:space="preserve">
<style type="text/css">
	.st0{opacity:0.5;}
	.st1{fill:none;stroke:#FFFFFF;stroke-width:0.5;stroke-miterlimit:10;}
	.st2{fill:#FFFFFF;}
	.st3{fill:none;stroke:#FFFFFF;stroke-width:0.75;stroke-miterlimit:10;}
	.st4{fill:#FF0000;}
	.st5{fill:#E5E5E5;}
	.st6{fill:none;stroke:#A67C52;stroke-width:1.5296;stroke-miterlimit:10;}
	.st7{fill:#A57C52;}
	.st8{fill:none;stroke:#FFFFFF;stroke-width:2;stroke-miterlimit:10;}
	.st9{opacity:0.46;fill:#FC0000;}
	.st10{opacity:0.46;fill:#0000FF;}
</style>
<g id="Capa_2">
</g>
<g id="Capa_1">
	<g>
		<g>
			<path class="st1" d="M67.41,32.52c0,3.5-2.83,6.5-3.85,9.66c-1.06,3.27-0.58,7.36-2.56,10.08c-2,2.75-6.05,3.54-8.8,5.54
				c-2.72,1.98-4.72,5.6-7.99,6.66c-3.16,1.02-6.88-0.7-10.38-0.7c-3.5,0-7.22,1.72-10.38,0.7c-3.27-1.06-5.27-4.68-7.99-6.66
				c-2.75-2-6.8-2.79-8.8-5.54c-1.98-2.72-1.5-6.81-2.56-10.08c-1.02-3.16-3.85-6.16-3.85-9.66c0-3.5,2.83-6.5,3.85-9.66
				c1.06-3.27,0.58-7.36,2.56-10.08c2-2.75,6.05-3.54,8.8-5.54c2.72-1.98,4.72-5.6,7.99-6.66c3.16-1.02,6.88,0.7,10.38,0.7
				s7.22-1.72,10.38-0.7c3.27,1.06,5.27,4.68,7.99,6.66c2.75,2,6.8,2.79,8.8,5.54c1.98,2.72,1.5,6.81,2.56,10.08
				C64.58,26.02,67.41,29.02,67.41,32.52z"/>
		</g>
		<g>
			<path class="st2" d="M34.56,44.48v-7.56l-1.46-1.66l0,9.22l-11.27,0l0-23.93l19.03,0c3.26,0,4.98,1.72,4.98,4.98v2.99
				c0,1.87-0.75,3.12-2.35,3.94l-0.57,0.29l2.92,2.83l0,8.9L34.56,44.48z M33.1,31.35h1.46l0-4.87H33.1V31.35z"/>
		</g>
	</g>
</g>
</svg>
