<svg xmlns="http://www.w3.org/2000/svg" xml:space="preserve" style="enable-background:new 0 0 67.66 65.04" viewBox="0 0 67.66 65.04"><style>.st0{opacity:.5}.st3{fill:none;stroke:#fff;stroke-width:.75;stroke-miterlimit:10}.st4{fill:red}.st5{fill:#e5e5e5}.st6{fill:none;stroke:#a67c52;stroke-width:1.5296;stroke-miterlimit:10}.st7{fill:#a57c52}.st8{fill:none;stroke:#fff;stroke-width:2;stroke-miterlimit:10}.st10,.st9{opacity:.46;fill:#fc0000}.st10{fill:#00f}</style><g id="Capa_1"><path d="M67.41 32.52c0 3.5-2.83 6.5-3.85 9.66-1.06 3.27-.58 7.36-2.56 10.08-2 2.75-6.05 3.54-8.8 5.54-2.72 1.98-4.72 5.6-7.99 6.66-3.16 1.02-6.88-.7-10.38-.7-3.5 0-7.22 1.72-10.38.7-3.27-1.06-5.27-4.68-7.99-6.66-2.75-2-6.8-2.79-8.8-5.54-1.98-2.72-1.5-6.81-2.56-10.08C3.08 39.02.25 36.02.25 32.52s2.83-6.5 3.85-9.66c1.06-3.27.58-7.36 2.56-10.08 2-2.75 6.05-3.54 8.8-5.54 2.72-1.98 4.72-5.6 7.99-6.66 3.16-1.02 6.88.7 10.38.7s7.22-1.72 10.38-.7c3.27 1.06 5.27 4.68 7.99 6.66 2.75 2 6.8 2.79 8.8 5.54 1.98 2.72 1.5 6.81 2.56 10.08 1.02 3.16 3.85 6.16 3.85 9.66z" style="fill:none;stroke:#fff;stroke-width:.5;stroke-miterlimit:10"/><path d="M34.56 44.48v-7.56l-1.46-1.66v9.22H21.83V20.55h19.03c3.26 0 4.98 1.72 4.98 4.98v2.99c0 1.87-.75 3.12-2.35 3.94l-.57.29 2.92 2.83v8.9H34.56zM33.1 31.35h1.46v-4.87H33.1v4.87z" style="fill:#fff"/></g></svg>