<svg xmlns="http://www.w3.org/2000/svg" xml:space="preserve" style="enable-background:new 0 0 1755.99 483.59" viewBox="0 0 1755.99 483.59"><style>.st3{display:none}</style><path id="Capa_1" d="M-82.44-55.23v596.16h1920V-55.23h-1920zm543.86 224.3c0 39.4-17.98 62.9-46.32 77.42l46.32 44.93v163.14c0 4.15-2.77 6.91-6.91 6.91H251.29c-4.15 0-6.91-2.76-6.91-6.91V321.84l-9.68-11.06v143.78c0 4.15-2.77 6.91-6.91 6.91H24.56c-4.15 0-6.91-2.76-6.91-6.91V25.98c0-4.15 2.76-6.91 6.91-6.91h340.08c62.22 0 96.78 34.56 96.78 96.78v53.22zm443.04 11.75c0 4.15-2.77 6.91-6.91 6.91H704.71v9.68h192.83c4.15 0 6.91 2.77 6.91 6.91v78.8c0 3.46-2.77 6.22-6.91 6.22H704.71v10.37h192.83c4.15 0 6.91 2.76 6.91 6.22v148.62c0 4.15-2.77 6.91-6.91 6.91H486.29c-4.15 0-6.91-2.76-6.91-6.91V25.98c0-4.15 2.76-6.91 6.91-6.91h411.25c4.15 0 6.91 2.76 6.91 6.91v154.84zm461.73 273.36c0 4.15-2.76 6.91-6.91 6.91h-203.22c-4.15 0-6.91-2.76-6.91-6.91v-87.1h-9.68v87.1c0 4.15-2.76 6.91-6.91 6.91H929.33c-4.15 0-6.91-2.76-6.91-6.91v-159l68.44-270.97c1.39-4.15 4.15-5.53 7.61-5.53h291.7c4.15 0 6.91 1.38 8.29 5.53l67.74 270.97v159zm372.51.38c0 4.15-2.76 6.91-6.91 6.91h-340.73c-4.15 0-6.91-2.76-6.91-6.91V25.98c0-4.15 2.77-6.91 6.91-6.91h211.51c4.15 0 6.91 2.76 6.91 6.91V292.8h122.3c4.15 0 6.91 2.76 6.91 6.91v154.85z"/></svg>